<svg width="31" height="31" viewBox="0 0 31 31" fill="none" xmlns="http://www.w3.org/2000/svg">
<path d="M15.8411 30.2012C24.0149 30.2012 30.7825 23.4336 30.7825 15.2598C30.7825 7.10059 24.0002 0.318359 15.8264 0.318359C7.66724 0.318359 0.899658 7.10059 0.899658 15.2598C0.899658 23.4336 7.68188 30.2012 15.8411 30.2012ZM15.8264 7.59863C20.5139 7.59863 24.176 10.6455 24.176 14.4248C24.176 18.1895 20.5139 21.2363 15.8264 21.2363C15.4895 21.2363 15.1819 21.2363 14.8889 21.2217C14.7278 21.207 14.6399 21.251 14.4788 21.3535C12.9846 22.2617 11.4758 22.8916 10.6409 22.8916C9.98169 22.8916 9.8645 22.3643 10.2893 21.8809C10.5969 21.5293 11.0364 21.0605 11.2854 20.5625C11.3733 20.3867 11.3733 20.2109 11.1829 20.123C8.97095 18.834 7.47681 16.7832 7.47681 14.4248C7.47681 10.6455 11.1389 7.59863 15.8264 7.59863Z" fill="white"/>
</svg>
