<svg width="26" height="26" viewBox="0 0 26 26" fill="none" xmlns="http://www.w3.org/2000/svg">
<path d="M13.0217 13.4268C13.6077 13.4268 14.0105 12.9995 14.0105 12.3892V1.42725C14.0105 0.804688 13.6077 0.389648 13.0217 0.389648C12.4358 0.389648 12.0452 0.804688 12.0452 1.42725V12.3892C12.0452 12.9995 12.4358 13.4268 13.0217 13.4268ZM13.0217 26C19.8333 26 25.4729 20.3481 25.4729 13.5488C25.4729 9.80127 23.7639 6.5542 21.4202 4.41797C20.3459 3.44141 18.9666 4.89404 20.0286 5.90723C22.1038 7.79932 23.3855 10.5093 23.3977 13.5488C23.4099 19.3105 18.7834 23.9248 13.0217 23.9248C7.26001 23.9248 2.65796 19.3105 2.65796 13.5488C2.67017 10.4849 3.9519 7.78711 6.01489 5.89502C7.08911 4.86963 5.69751 3.4292 4.62329 4.40576C2.26733 6.54199 0.570557 9.80127 0.570557 13.5488C0.570557 20.3481 6.22241 26 13.0217 26Z" fill="white"/>
</svg>
