<svg width="27" height="34" viewBox="0 0 27 34" fill="none" xmlns="http://www.w3.org/2000/svg">
<path d="M13.3901 21.9541C14.02 21.9541 14.5474 21.4268 14.5474 20.8115V5.76758L14.4595 3.57031L15.4556 4.61035L17.6675 6.9834C17.8726 7.21777 18.1802 7.33496 18.4585 7.33496C19.0737 7.33496 19.5278 6.89551 19.5278 6.29492C19.5278 5.9873 19.4106 5.75293 19.1909 5.5332L14.2397 0.757812C13.9468 0.464844 13.6831 0.362305 13.3901 0.362305C13.0972 0.362305 12.8335 0.464844 12.5405 0.757812L7.58936 5.5332C7.36963 5.75293 7.23779 5.9873 7.23779 6.29492C7.23779 6.89551 7.69189 7.33496 8.29248 7.33496C8.58545 7.33496 8.89307 7.21777 9.09814 6.9834L11.3247 4.61035L12.3208 3.57031L12.2183 5.76758V20.8115C12.2183 21.4268 12.7603 21.9541 13.3901 21.9541ZM4.98193 33.4238H21.7837C24.8452 33.4238 26.3833 31.9004 26.3833 28.8828V14.2637C26.3833 11.2461 24.8452 9.72266 21.7837 9.72266H17.6968V12.0811H21.7397C23.1899 12.0811 24.0249 12.8721 24.0249 14.3955V28.751C24.0249 30.2744 23.1899 31.0654 21.7397 31.0654H5.01123C3.54639 31.0654 2.74072 30.2744 2.74072 28.751V14.3955C2.74072 12.8721 3.54639 12.0811 5.01123 12.0811H9.06885V9.72266H4.98193C1.92041 9.72266 0.382324 11.2461 0.382324 14.2637V28.8828C0.382324 31.9004 1.92041 33.4238 4.98193 33.4238Z" fill="white"/>
</svg>
