<svg width="36" height="32" viewBox="0 0 36 32" fill="none" xmlns="http://www.w3.org/2000/svg">
<path d="M0.905273 14.874C0.905273 15.4746 1.37402 16.0459 2.16504 16.0459C2.5752 16.0459 2.91211 15.8262 3.21973 15.5771L17.8828 3.27246C18.2051 2.97949 18.6006 2.97949 18.9229 3.27246L33.5859 15.5771C33.8789 15.8262 34.2158 16.0459 34.626 16.0459C35.3145 16.0459 35.8711 15.6211 35.8711 14.918C35.8711 14.4785 35.7246 14.1855 35.417 13.9219L31.3154 10.4648V4.60547C31.3154 3.96094 30.9053 3.55078 30.2607 3.55078H28.6934C28.0635 3.55078 27.6387 3.96094 27.6387 4.60547V7.37402L20.168 1.10449C19.084 0.181641 17.7363 0.181641 16.6377 1.10449L1.37402 13.9219C1.05176 14.1855 0.905273 14.5371 0.905273 14.874ZM5.47559 27.9551C5.47559 29.9766 6.70605 31.1777 8.77148 31.1777H28.0342C30.0996 31.1777 31.3154 29.9766 31.3154 27.9551V16.3389L19.2744 6.24609C18.7178 5.77734 18.0586 5.79199 17.5166 6.24609L5.47559 16.3389V27.9551ZM22.1748 28.8193H14.6162V19.1367C14.6162 18.4629 15.0703 18.0234 15.7441 18.0234H21.0615C21.7354 18.0234 22.1748 18.4629 22.1748 19.1367V28.8193Z" fill="white"/>
</svg>
