<svg width="27" height="32" viewBox="0 0 27 32" fill="none" xmlns="http://www.w3.org/2000/svg">
<path d="M13.3901 22.1475C13.6831 22.1475 13.9468 22.0596 14.2397 21.7666L19.1909 16.9766C19.4106 16.7568 19.5278 16.5225 19.5278 16.2148C19.5278 15.6143 19.0737 15.1895 18.4585 15.1895C18.1802 15.1895 17.8726 15.3066 17.6675 15.541L15.4556 17.8994L14.4595 18.9395L14.5474 16.7422V1.30273C14.5474 0.6875 14.02 0.160156 13.3901 0.160156C12.7603 0.160156 12.2183 0.6875 12.2183 1.30273V16.7422L12.3208 18.9395L11.3247 17.8994L9.09814 15.541C8.89307 15.3066 8.58545 15.1895 8.29248 15.1895C7.69189 15.1895 7.23779 15.6143 7.23779 16.2148C7.23779 16.5225 7.36963 16.7568 7.58936 16.9766L12.5405 21.7666C12.8335 22.0596 13.0972 22.1475 13.3901 22.1475ZM4.98193 31.7861H21.7837C24.8452 31.7861 26.3833 30.2627 26.3833 27.2451V12.626C26.3833 9.6084 24.8452 8.08496 21.7837 8.08496H17.6968V10.4434H21.7397C23.1899 10.4434 24.0249 11.2344 24.0249 12.7578V27.1133C24.0249 28.6367 23.1899 29.4277 21.7397 29.4277H5.01123C3.54639 29.4277 2.74072 28.6367 2.74072 27.1133V12.7578C2.74072 11.2344 3.54639 10.4434 5.01123 10.4434H9.06885V8.08496H4.98193C1.92041 8.08496 0.382324 9.6084 0.382324 12.626V27.2451C0.382324 30.2627 1.92041 31.7861 4.98193 31.7861Z" fill="white"/>
</svg>
