<svg width="38" height="29" viewBox="0 0 38 29" fill="none" xmlns="http://www.w3.org/2000/svg">
<path d="M29.9207 28.2012H34.2859C36.3074 28.2012 37.3474 27.2344 37.3474 25.3154V3.70898C37.3474 1.79004 36.3074 0.808594 34.2859 0.808594H29.9207C27.9285 0.808594 26.8884 1.79004 26.8884 3.70898V25.3154C26.8884 27.2344 27.9285 28.2012 29.9207 28.2012ZM16.7517 28.2012H21.1169C23.1384 28.2012 24.1638 27.2344 24.1638 25.3154V7.98633C24.1638 6.06738 23.1384 5.08594 21.1169 5.08594H16.7517C14.7449 5.08594 13.7048 6.06738 13.7048 7.98633V25.3154C13.7048 27.2344 14.7449 28.2012 16.7517 28.2012ZM3.58276 28.2012H7.93335C9.95483 28.2012 10.9949 27.2344 10.9949 25.3154V12.249C10.9949 10.3301 9.95483 9.34863 7.93335 9.34863H3.58276C1.57593 9.34863 0.535889 10.3301 0.535889 12.249V25.3154C0.535889 27.2344 1.57593 28.2012 3.58276 28.2012Z" fill="white"/>
</svg>
