<svg width="28" height="28" viewBox="0 0 28 28" fill="none" xmlns="http://www.w3.org/2000/svg">
<path d="M4.98193 27.7988H22.7505C25.8267 27.7988 27.3501 26.2754 27.3501 23.2578V5.37207C27.3501 2.35449 25.8267 0.831055 22.7505 0.831055H4.98193C1.92041 0.831055 0.382324 2.33984 0.382324 5.37207V23.2578C0.382324 26.29 1.92041 27.7988 4.98193 27.7988ZM2.74072 23.1406V5.48926C2.74072 3.96582 3.54639 3.18945 5.01123 3.18945H22.7212C24.1714 3.18945 24.9917 3.96582 24.9917 5.48926V23.1406C24.9917 24.2832 24.5229 25.0156 23.6733 25.2939C22.3989 21.7051 18.5317 19.2002 13.8735 19.2002C9.20068 19.2002 5.34814 21.7051 4.07373 25.3086C3.20947 25.0156 2.74072 24.2832 2.74072 23.1406ZM13.8735 16.7539C16.6714 16.7832 18.8687 14.3955 18.8687 11.2607C18.8687 8.31641 16.6714 5.88477 13.8735 5.88477C11.0757 5.88477 8.84912 8.31641 8.86377 11.2607C8.87842 14.3955 11.0757 16.7246 13.8735 16.7539Z" fill="white"/>
</svg>
